<svg xmlns="http://www.w3.org/2000/svg" viewBox="0 0 512 512" width="512" height="512">
  <defs>
    <clipPath id="rounded">
      <rect width="512" height="512" rx="112"/>
    </clipPath>
  </defs>

  <rect width="512" height="512" rx="112" fill="#1C0E00"/>

  <line x1="256" y1="38" x2="256" y2="18" stroke="#FFD166" stroke-width="6" stroke-linecap="round" opacity="0.65"/>
  <line x1="256" y1="474" x2="256" y2="494" stroke="#FFD166" stroke-width="6" stroke-linecap="round" opacity="0.65"/>
  <line x1="38" y1="256" x2="18" y2="256" stroke="#FFD166" stroke-width="6" stroke-linecap="round" opacity="0.65"/>
  <line x1="474" y1="256" x2="494" y2="256" stroke="#FFD166" stroke-width="6" stroke-linecap="round" opacity="0.65"/>
  <line x1="91" y1="91" x2="77" y2="77" stroke="#FFD166" stroke-width="4" stroke-linecap="round" opacity="0.45"/>
  <line x1="421" y1="91" x2="435" y2="77" stroke="#FFD166" stroke-width="4" stroke-linecap="round" opacity="0.45"/>
  <line x1="91" y1="421" x2="77" y2="435" stroke="#FFD166" stroke-width="4" stroke-linecap="round" opacity="0.45"/>
  <line x1="421" y1="421" x2="435" y2="435" stroke="#FFD166" stroke-width="4" stroke-linecap="round" opacity="0.45"/>

  <circle cx="256" cy="310" r="170" fill="#FF5F2E" opacity="0.10"/>
  <circle cx="256" cy="310" r="120" fill="#FF5F2E" opacity="0.14"/>
  <circle cx="256" cy="310" r="72" fill="#FF5F2E" opacity="0.18"/>

  <line x1="60" y1="390" x2="452" y2="390" stroke="#FF5F2E" stroke-width="2" opacity="0.35"/>

  <circle cx="256" cy="148" r="38" fill="#FF5F2E"/>
  <path d="M228 142 Q232 118 256 112 Q280 118 284 142" fill="#FFD166" opacity="0.9"/>
  <rect x="220" y="140" width="16" height="8" rx="4" fill="#FFD166" opacity="0.75"/>

  <path d="M256 186 L238 260" stroke="#FF5F2E" stroke-width="22" stroke-linecap="round" fill="none"/>
  <path d="M249 204 L204 234" stroke="#FFD166" stroke-width="16" stroke-linecap="round" fill="none"/>
  <path d="M256 210 L302 180" stroke="#FFD166" stroke-width="16" stroke-linecap="round" fill="none"/>
  <path d="M238 260 L208 330 L192 376" stroke="#FF5F2E" stroke-width="18" stroke-linecap="round" fill="none"/>
  <path d="M238 260 L274 328 L298 364" stroke="#FF5F2E" stroke-width="18" stroke-linecap="round" fill="none"/>

  <ellipse cx="190" cy="380" rx="26" ry="10" fill="#FFD166"/>
  <ellipse cx="300" cy="366" rx="26" ry="10" fill="#FFD166"/>

  <line x1="100" y1="268" x2="172" y2="268" stroke="#FF5F2E" stroke-width="6" stroke-linecap="round" opacity="0.55"/>
  <line x1="86" y1="286" x2="170" y2="286" stroke="#FF5F2E" stroke-width="4" stroke-linecap="round" opacity="0.38"/>
  <line x1="100" y1="304" x2="172" y2="304" stroke="#FF5F2E" stroke-width="2.5" stroke-linecap="round" opacity="0.22"/>

  <path d="M346 80 L350 64 L354 80 L370 84 L354 88 L350 104 L346 88 L330 84Z" fill="#FFD166" opacity="0.95"/>
  <path d="M150 178 L153 168 L156 178 L166 181 L156 184 L153 194 L150 184 L140 181Z" fill="#FFD166" opacity="0.5"/>
</svg>
